<?xml version="1.0" encoding="utf-8"?>
<!-- Generator: Adobe Illustrator 26.1.0, SVG Export Plug-In . SVG Version: 6.00 Build 0)  -->
<svg version="1.1" id="Layer_1" xmlns="http://www.w3.org/2000/svg" xmlns:xlink="http://www.w3.org/1999/xlink" x="0px" y="0px"
	 viewBox="0 0 94.4 71.9" style="enable-background:new 0 0 94.4 71.9;" xml:space="preserve">
<style type="text/css">
	.st0{fill:#D93317;}
	.st1{fill:#404955;}
	.st2{fill:#8D9299;}
</style>
<g>
	<g>
		
			<rect x="26.2" y="-6.4" transform="matrix(2.186405e-03 -1 1 2.186405e-03 22.9597 40.4785)" class="st0" width="11.2" height="30.2"/>
		<polygon class="st1" points="65.7,14.2 65.7,11.6 65.3,11.6 64.7,11.9 64.8,12.4 65.2,12.3 65.2,14.3 		"/>
		<path class="st1" d="M67.5,13.8c-0.1,0-0.3,0-0.4,0v0.5c0.1,0,0.3,0,0.4,0c0.9,0,1.5-0.6,1.3-1.6c0-0.6-0.4-1.1-0.9-1.1
			c-0.6,0-0.9,0.4-0.9,0.9c0,0.5,0.3,0.8,0.7,0.8c0.3,0,0.4,0,0.5-0.1c0,0.1,0,0.3,0,0.3C67.9,13.7,67.8,13.8,67.5,13.8z M67.8,12.8
			c-0.3,0-0.4-0.1-0.4-0.4c0-0.3,0.1-0.4,0.4-0.4c0.3,0,0.4,0.1,0.4,0.4C68.2,12.7,68,12.8,67.8,12.8z"/>
		<path class="st1" d="M70.7,14.3c0.1-0.7,0.4-1.5,0.6-2.2v-0.5h-1.6v0.6c0.4,0,0.8,0,0.9,0c-0.1,0.5-0.5,1.3-0.6,2
			C70.1,14.3,70.7,14.3,70.7,14.3z"/>
		<path class="st1" d="M72.7,13.8c-0.1,0-0.3,0-0.4,0v0.5c0.1,0,0.4,0,0.5,0c0.6,0,1.1-0.4,1.1-0.9c0-0.3-0.1-0.5-0.5-0.6
			c0.3-0.1,0.4-0.4,0.4-0.6c0-0.4-0.3-0.6-0.7-0.6c-0.3,0-0.5,0-0.6,0.1v0.6c0.1-0.1,0.3-0.1,0.4-0.1c0.3,0,0.4,0.1,0.4,0.3
			c0,0.3-0.3,0.4-0.7,0.4v0.4c0,0,0.1,0,0.3,0c0.4,0,0.5,0.3,0.5,0.4C73.2,13.7,72.9,13.8,72.7,13.8z"/>
		<polygon class="st1" points="76.8,14.9 78.1,11.4 77.5,11.4 76.2,14.9 		"/>
		<path class="st1" d="M80.7,13.8v0.5h1.6v-0.6c-0.4,0-0.6,0-0.8,0l0.1-0.1c0.5-0.5,0.6-0.8,0.6-1.2c0-0.4-0.3-0.7-0.8-0.7
			c-0.4,0-0.6,0-0.7,0.1l0.1,0.5c0.1,0,0.4-0.1,0.5-0.1c0.3,0,0.4,0.3,0.4,0.4c0,0.3-0.1,0.5-0.6,0.9L80.7,13.8z"/>
		<path class="st1" d="M83.4,13c0,0.8,0.3,1.3,0.9,1.3c0.5,0,0.9-0.4,1.1-1.3c0-0.8-0.3-1.3-0.9-1.3C83.9,11.6,83.4,12,83.4,13z
			 M84.7,13c0,0.6-0.1,0.8-0.4,0.8c-0.3,0-0.4-0.3-0.4-0.8c0-0.6,0.1-0.8,0.4-0.8C84.6,12.2,84.7,12.3,84.7,13z"/>
		<path class="st1" d="M86.2,13.8v0.5h1.6v-0.6c-0.4,0-0.6,0-0.8,0l0.1-0.1c0.5-0.5,0.6-0.8,0.6-1.2c0-0.4-0.3-0.7-0.8-0.7
			c-0.4,0-0.6,0-0.7,0.1l0.1,0.5c0.1,0,0.4-0.1,0.5-0.1c0.3,0,0.4,0.3,0.4,0.4c0,0.3-0.1,0.5-0.6,0.9L86.2,13.8z"/>
		<path class="st1" d="M89,11.6v0.5c0.1-0.1,0.3-0.1,0.4-0.1c0.3,0,0.4,0.1,0.4,0.3c0,0.3-0.3,0.4-0.7,0.4v0.4c0,0,0.1,0,0.3,0
			c0.4,0,0.5,0.3,0.5,0.4c0,0.3-0.3,0.4-0.5,0.4c-0.1,0-0.3,0-0.4,0v0.5c0.1,0,0.4,0,0.5,0c0.6,0,1.1-0.3,1.1-0.9
			c0-0.3-0.1-0.5-0.5-0.6c0.3-0.1,0.4-0.4,0.4-0.6c0-0.4-0.3-0.6-0.7-0.6C89.4,11.5,89.2,11.5,89,11.6z"/>
		<path class="st0" d="M51.7,16.2c0.5,0.3,0.9,0.5,1.5,0.5s0.9-0.1,1.3-0.4c0.6-0.4,0.9-0.9,1.3-1.8c0.4-0.9,0.6-1.9,0.7-3
			c0.1-0.7,0.3-1.6,0.4-2.3c0.8-0.7,1.6-1.3,2.5-1.8c0.6-0.4,1.2-0.7,1.9-0.8c0,0.4,0,0.7,0.3,1.1c0.4,0.7,0.8,1.1,1.6,1.1
			c1.8,0.1,3.8-0.7,4.9-1.3c0.2,0.6,0.5,1.1,1.1,1.1c1.6,0.3,3-0.9,3.8-1.6c0,0.6,0.3,1.6,0.9,1.6c1.3,0.1,2.5-0.6,2.8-0.8
			c0.1,0,0.3-0.1,0.5-0.4l0.3-0.1c0.8-0.5,1.6-0.9,1.8-1.1v0.1c0,0.1,0,0.1-0.1,0.3c0,0-0.4,1.6-0.3,1.8C78.9,8.7,79.2,9,79.7,9
			s0.7-0.5,0.8-0.8c0.1-0.4,0.1-0.7,0.6-1.2c0.5-0.7,0.9-0.9,1.6-1.2h0.1c0.5-0.1,1.8,0.4,2.7,0.3v0.1v0.1c0,0.6,0.6,0.9,1.1,1.5
			c0.3,0.1,0.5,0.4,0.6,0.5c0,0.1-0.5,0.6-2,1.6c-0.1,0-0.1,0.1-0.1,0.1c-0.4,0.4,0,1.3,1.1,1.1c0.4,0,2.2-1.2,2.7-1.6
			c0,0,0.6-0.5,0.6-0.7c0.5-0.5,0-0.9-0.9-1.6c-0.8-0.5-0.9-0.8-0.9-1.1c0.5-0.1,0.8-0.1,1.1-0.1h0.1C89.8,5.7,90,5.3,90,5
			c0.1-0.4,0.1-1.1-0.3-1.5C89.4,3.1,89,3,88.5,3c-1.1,0.1-1.8,0.8-2.2,1.5c-1.3,0.1-2.7-0.3-3.4-0.1h-0.1c-0.5,0.1-0.9,0.4-1.2,0.6
			c-0.3,0.1-0.5,0.3-0.6,0.3l-0.1-0.1c-0.1-0.1-0.4-0.4-0.7-0.4s-0.7,0-0.9,0.1c-0.5,0.1-2.5,1.5-2.8,1.6h-0.1
			C76.1,6.7,75.5,7,75.1,7c-0.1,0-0.3,0-0.4-0.1c-0.1-0.1-0.1-0.6,0.1-1.1c0-0.1,0-0.1,0-0.3c0-0.4-0.5-0.7-0.9-0.7
			c0-0.3-0.1-0.5-0.3-0.7c-0.1-0.3-0.5-0.4-0.7-0.4c-0.7,0-1.6,0.3-2.7,0.8c-0.8,0.5-1.1,0.7-1.5,1.1l-0.1,0.1
			c-1.1,0.5-4.1,1.9-5,1.6c0,0-0.1,0-0.1-0.1c-0.1-0.1-0.1-0.5-0.1-0.7c2.4-0.1,3-0.8,3.1-1.6c0-0.1,0.3-0.8,0-1.2
			c-0.4-0.6-0.9-0.8-1.9-0.7c-0.7,0.3-1.3,0.4-1.8,0.8c-0.3,0.3-0.6,0.5-0.7,0.9c-1.1,0-2.2,0.5-3,0.9C58.5,6,58,6.4,57.5,6.8
			c0.1-0.8,0.1-1.6,0.3-2.4V4.3c0-0.5-0.3-0.7-0.6-0.8c-0.4-0.1-0.9,0.1-1.1,0.6c-0.4,0.8-0.9,1.8-1.8,1.9c-0.1,0-0.3,0-0.4-0.1
			c-0.1-0.3,0-0.6,0.1-0.9c0-0.3,0.1-0.4,0.1-0.6c0-0.5-0.3-0.8-0.7-0.8c-0.5,0-0.9,0.3-1.1,0.8c0,0.1-0.1,0.4-0.1,0.5
			C52,5.1,52,5.3,52,5.7c0,0.5,0.1,0.8,0.3,1.1c0.4,0.6,0.9,0.9,1.6,0.9c0.6,0,1.1-0.1,1.6-0.5c0,0.4-0.1,0.7-0.1,1.1
			C54.5,9,53.8,9.8,53,10.6l-0.1,0.3c-0.6,0.6-1.2,1.3-1.6,2C50.6,13.9,50.6,15.5,51.7,16.2z M71.9,6c0.1,0.4-1.3,1.2-1.8,1.1
			C70.2,6.8,71.6,5.7,71.9,6z M65.5,4.8c0,0.4-0.9,0.5-1.6,0.5C64.1,4.9,65.3,4.6,65.5,4.8z M53.1,13.9c0.3-0.5,0.7-0.9,1.2-1.5
			l0.3-0.3c0.3-0.3,0.6-0.6,0.8-0.8c-0.3,1.1-0.6,2.3-1.1,3.2c0,0.1-0.1,0.1,0,0c-0.1,0.1-0.1,0.1-0.1,0.3c0,0-0.1,0-0.1,0.1
			C53.8,15,53.7,15,53.3,15c-0.1,0-0.4-0.1-0.4-0.3C52.8,14.6,52.9,14.2,53.1,13.9z"/>
		<path class="st0" d="M66.2,20.1c-7.6,0-14.3,3.5-18.8,8.9l0,0c-2.3-2.7-5.4-5.2-8.6-6.8L38,21.9c-2.8-1.2-6.1-1.9-9.3-2H17.1V31
			h11.6c4.1,0.1,7.5,2,10,4.9c1.8,2.3,2.8,5,2.8,8.2c0,7.3-6,13.2-13.2,13.2c-4.1,0-7.8-1.9-10.2-4.8c-0.1-0.1-0.1-0.1-0.3-0.3
			c-0.5-0.7-0.9-1.5-1.3-2.2c-0.8-1.8-1.5-3.8-1.5-5.9H3.9c0,5.3,1.6,10.1,4.4,14l0.2,0.2c0.1,0.1,0.3,0.4,0.4,0.5
			c4.4,5.9,11.5,9.7,19.5,9.8c7.5,0,14.5-3.6,18.9-9c4.5,5.5,11.3,9,18.8,9c13.4,0,24.3-10.9,24.3-24.3S79.5,20.1,66.2,20.1z
			 M66.3,57.6c-7.2,0-13.1-5.9-13.1-13.1S59,31.4,66.3,31.4s13.1,5.9,13.1,13.1C79.5,51.7,73.5,57.6,66.3,57.6z"/>
	</g>
	<g>
		<g>
			<g>
				<path class="st2" d="M14.9,31.3H4v-5.2h0.7v4.4h4.1v-4.1h0.7v4.1h4.5v-4.4h0.7C14.9,26.1,14.9,31.3,14.9,31.3z"/>
			</g>
			<g>
				<path class="st2" d="M10.5,19c0,0.4,0,0.7,0,1.1h4.4V21H4c0-0.7,0-1.6,0-2.4C4,16.2,5.3,15,7,15C9.2,15,10.5,16.7,10.5,19z
					 M4.8,18.8c0,0.5,0,0.9,0,1.3h4.9c0-0.4,0.1-0.7,0.1-1.2c0-1.9-1.1-3.1-2.6-3.1C5.6,15.8,4.8,16.7,4.8,18.8z"/>
			</g>
			<g>
				<path class="st2" d="M14.9,7.3c0,3.2-1.9,4.9-5.3,4.9c-3.2,0-5.7-1.4-5.7-5.2c0-0.8,0.1-1.7,0.4-2.6l0.8,0.1
					C4.9,5.3,4.7,6.3,4.7,7.2c0,2.8,2.2,4,4.9,4c2.9,0,4.8-1.3,4.8-4.1c0-0.9-0.3-1.9-0.5-2.7l0.7-0.3C14.7,5.1,14.9,6.1,14.9,7.3z"
					/>
			</g>
		</g>
	</g>
</g>
</svg>
